<?xml version="1.0" encoding="UTF-8" standalone="no"?>
<!DOCTYPE svg PUBLIC "-//W3C//DTD SVG 1.1//EN" "http://www.w3.org/Graphics/SVG/1.1/DTD/svg11.dtd">
<svg width="100%" height="100%" viewBox="0 0 64 64" version="1.1" xmlns="http://www.w3.org/2000/svg" xmlns:xlink="http://www.w3.org/1999/xlink" xml:space="preserve" xmlns:serif="http://www.serif.com/" style="fill-rule:evenodd;clip-rule:evenodd;stroke-linejoin:round;stroke-miterlimit:2;">
    <g transform="matrix(2.28571,0,0,2.46154,-38.8571,-34.4615)">
        <path d="M45,20.5C45,16.913 41.863,14 38,14L24,14C20.137,14 17,16.913 17,20.5L17,33.5C17,37.087 20.137,40 24,40L38,40C41.863,40 45,37.087 45,33.5L45,20.5Z" style="fill:white;"/>
        <path d="M45,20.5C45,16.913 41.863,14 38,14L24,14C20.137,14 17,16.913 17,20.5L17,33.5C17,37.087 20.137,40 24,40L38,40C41.863,40 45,37.087 45,33.5L45,20.5ZM44.563,20.5L44.563,33.5C44.563,36.863 41.622,39.594 38,39.594L24,39.594C20.378,39.594 17.438,36.863 17.438,33.5L17.438,20.5C17.438,17.137 20.378,14.406 24,14.406L38,14.406C41.622,14.406 44.563,17.137 44.563,20.5Z"/>
    </g>
    <g transform="matrix(0.709886,0,0,0.709886,-6.33034,10.2076)">
        <text x="8px" y="57px" style="font-family:'FiraCodeNF-Reg', 'FiraCode Nerd Font', monospace;font-size:72.594px;">&lt;/</text>
    </g>
</svg>
